#!OML:ASF E:/inclinewalkrobotboard/Project1/Captureday1/Session1/subject1.ASF
:FULLY-SPECIFIED
:DEGREES
363
root 0 0 0 -3.3650815928316145 -29.57233982790874 0.8783098413169046
lowerback 11.730669687524003 0.4568008050183705 1.8793018606452139
upperback 1.9223865234691375 0.7174862421929086 0.8646993524628084
thorax -4.423433434391633 0.3232341997580809 -0.2822803411469534
lowerneck -11.86675787401795 -1.0314164095600544 -3.5189649696995944
upperneck 3.2988211842983954 -0.8003898697359486 2.177085977976981
head 2.9966770534575 -0.41795967790680555 1.189636597928176
rclavicle -3.0751083804447526E-15 7.602317817914221E-17
rhumerus -7.6225023949452435 -1.5833691913516326 -69.79667471502012
rradius 14.044574923776445
rwrist 39.99654217660489
rhand -7.586472719760097 18.33216614682539
rfingers 7.125020000000033
rthumb 18.26621236621227 -11.337575851979992
lclavicle 4.591053452693654E-16 -1.3954302510779917E-16
lhumerus 15.957730015820914 -34.31579084281262 71.6230375351832
lradius 124.87641453797224
lwrist 52.8878869767475
lhand -26.011266786823484 42.67459560599242
lfingers 7.139520356955472
lthumb 0.671609023694602 53.00389585975088
rfemur -20.97795792086631 4.7862323466212535 15.296131662716693
rtibia 49.497679710434056
rfoot -10.913772362412502 -12.772520526558218
rtoes -2.0048417988074037
lfemur -24.35668570403184 1.126327510271048 -11.279776993041166
ltibia 53.179288562642746
lfoot -8.95486093035083 0.7034898515602723
ltoes -9.782270248271196
364
root 0 0 0 -3.365063296063745 -29.57273500887682 0.8786659498253986
lowerback 11.730762827555846 0.4567966863837149 1.8793026709935907
upperback 1.922491840519483 0.7174733276449213 0.8646865404294468
thorax -4.423371532407449 0.3232279141062293 -0.2822963214380603
lowerneck -11.866529011377185 -1.0311222269407159 -3.518823761745416
upperneck 3.2990023905433734 -0.7999818264547711 2.176773923298012
head 2.996664081497143 -0.417774094820075 1.1895502491043932
rclavicle -3.0751173953062246E-15 7.602022212211453E-17
rhumerus -7.622411280239772 -1.583487909567376 -69.7965985116346
rradius 14.044488988482918
rwrist 39.99661361460218
rhand -7.586468280662293 18.33220532605531
rfingers 7.125020000000033
rthumb 18.26621758574431 -11.337538347038734
lclavicle 4.591132330524518E-16 -1.3952624928159375E-16
lhumerus 15.958081713878872 -34.315868590508416 71.62288395622348
lradius 124.8769143057616
lwrist 52.88837957854521
lhand -26.011423217535544 42.67472503992674
lfingers 7.139520863646664
lthumb 0.6714600129141157 53.003819061323675
rfemur -20.979489786942505 4.785927675506064 15.29538816775086
rtibia 49.49896967129834
rfoot -10.913016372957504 -12.772250520580467
rtoes -2.0049691510440346
lfemur -24.357011071952712 1.1262086179495094 -11.27964265506805
ltibia 53.17946958170532
lfoot -8.95444774870194 0.7031414020056932
ltoes -9.782410319353144
365
root 0 0 0 -3.36505175521747 -29.573151936063287 0.8790008100307908
lowerback 11.730860340147172 0.45678978989200425 1.879299926111971
upperback 1.9225930571455407 0.7174566137791414 0.8646762681464006
thorax -4.423316512248057 0.3232196926155832 -0.2823071959628482
lowerneck -11.866312354311127 -1.0308571088090104 -3.5186991490968755
upperneck 3.299141662300636 -0.7996138932400947 2.1764992497031166
head 2.99664293091688 -0.41760715091729295 1.1894753175248813
rclavicle -3.0751272278923692E-15 7.60178008818537E-17
rhumerus -7.6223301253240106 -1.5836046454574486 -69.79652668465758
rradius 14.04439302150152
rwrist 39.996691616656875
rhand -7.586458657619538 18.3322493995484
rfingers 7.125020000000033
rthumb 18.266227733122314 -11.337495921447555
lclavicle 4.59117764123388E-16 -1.3950994746707885E-16
lhumerus 15.958394138809048 -34.31594679440311 71.62275131205635
lradius 124.8773721962217
lwrist 52.888825913533765
lhand -26.01156182990955 42.67484315499963
lfingers 7.13952132736568
lthumb 0.6713280445192673 53.00374964637868
rfemur -20.980913376839265 4.785643735587328 15.294697667627423
rtibia 49.50016628062119
rfoot -10.912315068003792 -12.772003743766248
rtoes -2.0050861265451614
lfemur -24.35732931339408 1.1261070338492334 -11.279515929942454
ltibia 53.1796648363968
lfoot -8.954061972482915 0.7028091505581466
ltoes -9.782547060824008
366
root 0 0 0 -3.3650457752257577 -29.573584372635487 0.8793152926925447
lowerback 11.730961061733492 0.45678067393572275 1.8792942822425187
upperback 1.9226901630383555 0.7174369100364565 0.8646681900921744
thorax -4.423267736536491 0.32320994299885347 -0.2823137660675796
lowerneck -11.866107510253059 -1.0306184447260027 -3.518589412083339
upperneck 3.2992441994877435 -0.7992824679778772 2.176258117088305
head 2.9966149240886306 -0.41745714293205327 1.1894105661254608
rclavicle -3.075137670292588E-15 7.601582657178106E-17
rhumerus -7.6222580330579675 -1.5837189611655162 -69.79645904726577
rradius 14.044288842109381
rwrist 39.99677490336045
rhand -7.586444569606504 18.33229746614348
rfingers 7.125020000000033
rthumb 18.266242121771327 -11.337449474417571
lclavicle 4.59119333547483E-16 -1.3949413353040022E-16
lhumerus 15.958670989438165 -34.316024920446004 71.62263742669137
lradius 124.87779135553794
lwrist 52.88922981728682
lhand -26.011684288013598 42.67495084506845
lfingers 7.139521751850037
lthumb 0.6712115256193627 53.003686996367904
rfemur -20.982230366355644 4.785381499768778 15.29405868082947
rtibia 49.50126986334506
rfoot -10.91166833696202 -12.771778974553088
rtoes -2.005194250552461
lfemur -24.35764041503947 1.1260203765345715 -11.279396017936858
ltibia 53.17987103902202
lfoot -8.95370069955383 0.7024921553599155
ltoes -9.782680162026757
